<?xml version="1.0" encoding="utf-8"?>
<!-- Generator: Adobe Illustrator 27.0.0, SVG Export Plug-In . SVG Version: 6.00 Build 0)  -->
<svg version="1.1" id="Layer_1" xmlns="http://www.w3.org/2000/svg" xmlns:xlink="http://www.w3.org/1999/xlink" x="0px" y="0px"
	 viewBox="0 0 2000 450.09" style="enable-background:new 0 0 2000 450.09;" xml:space="preserve">
<style type="text/css">
	.st0{fill:#123227;}
</style>
<g>
	<g>
		<path class="st0" d="M669.31,304.02l60.25-157.96h23.24l60.02,157.96h-20.99l-16.69-42.65h-68.82l-16.69,42.65H669.31z
			 M712.18,243.55h57.09l-28.66-76.05L712.18,243.55z"/>
		<path class="st0" d="M866.58,146.06h19.63v91.62c0,32.72,13.09,49.65,40.39,49.65c27.76,0,40.85-16.93,40.85-49.65v-91.62h19.63
			v90.49c0,45.13-20.99,68.82-60.48,68.82s-60.02-23.69-60.02-68.82V146.06z"/>
		<path class="st0" d="M1062.04,304.02V146.06h50.55c49.42,0,79.43,31.59,79.43,78.98c0,47.16-30,78.97-79.43,78.97L1062.04,304.02
			L1062.04,304.02z M1081.67,285.97h30.91c38.37,0,59.35-24.15,59.35-60.93c0-37.01-20.99-60.93-59.35-60.93h-30.91V285.97z"/>
		<path class="st0" d="M1262.01,146.06h19.63v157.96h-19.63V146.06z"/>
		<path class="st0" d="M1351.62,225.05c0-47.84,29.56-80.34,75.37-80.34c34.98,0,60.47,20.31,66.34,53.03h-20.75
			c-6.1-21.88-22.79-34.97-46.49-34.97c-33.17,0-54.38,25.72-54.38,62.28c0,36.33,20.31,62.28,53.48,62.28
			c24.37,0,41.29-12.87,47.15-34.98h20.76c-5.87,32.72-32.04,53.03-67.69,53.03C1380.06,305.37,1351.62,273.33,1351.62,225.05z"/>
		<path class="st0" d="M1561.98,146.06h19.63v157.96h-19.63V146.06z"/>
		<path class="st0" d="M1646.62,146.06h122.08v18.06h-51.22v139.9h-19.63v-139.9h-51.22v-18.06H1646.62z"/>
		<path class="st0" d="M1820.87,146.06h23.02l46.49,78.31l47.16-78.31h22.11l-59.56,99.52v58.44h-19.63v-58.44L1820.87,146.06z"/>
	</g>
	<path class="st0" d="M506.7,137.04c-54.62,1.58-105.13,19.76-146.75,49.6c-31.79-35.2-51.76-81.27-53.56-131.89
		c-0.15-4.16-3.47-7.5-7.64-7.5h-42.69c-4.17,0-7.49,3.34-7.64,7.5c-1.8,50.62-21.77,96.68-53.56,131.89
		c-41.62-29.83-92.13-48.02-146.75-49.6c-4.27-0.12-7.77,3.39-7.77,7.66v42.52c0,4.11,3.29,7.38,7.4,7.53
		c36.83,1.29,71.26,12.21,100.84,30.29c-29.59,18.08-64.01,28.99-100.84,30.29c-4.1,0.14-7.4,3.42-7.4,7.53v42.52
		c0,4.27,3.5,7.78,7.77,7.66c54.62-1.58,105.13-19.76,146.75-49.6c31.79,35.2,51.76,81.27,53.56,131.89c0.15,4.16,3.47,7.5,7.64,7.5
		h42.69c4.17,0,7.49-3.34,7.64-7.5c1.8-50.62,21.77-96.68,53.56-131.89c41.62,29.83,92.13,48.02,146.75,49.6
		c4.27,0.12,7.77-3.39,7.77-7.66v-42.52c0-4.11-3.29-7.38-7.4-7.53c-36.83-1.29-71.26-12.21-100.84-30.29
		c29.59-18.08,64.01-28.99,100.84-30.29c4.1-0.14,7.4-3.42,7.4-7.53V144.7C514.48,140.43,510.97,136.92,506.7,137.04z
		 M270.81,270.43c-8.27-14.35-17.82-27.87-28.53-40.38c-2.48-2.9-2.48-7.11,0-10.01c10.71-12.51,20.26-26.03,28.53-40.38
		c2.95-5.12,10.26-5.12,13.21,0c8.27,14.35,17.82,27.87,28.53,40.38c2.48,2.9,2.48,7.11,0,10.01
		c-10.71,12.51-20.26,26.03-28.53,40.38C281.08,275.55,273.76,275.55,270.81,270.43z"/>
</g>
</svg>
