<?xml version="1.0" encoding="utf-8"?>
<!-- Generator: Adobe Illustrator 27.0.0, SVG Export Plug-In . SVG Version: 6.00 Build 0)  -->
<svg version="1.1" id="Layer_1" xmlns="http://www.w3.org/2000/svg" xmlns:xlink="http://www.w3.org/1999/xlink" x="0px" y="0px"
	 viewBox="0 0 2000 2000" style="enable-background:new 0 0 2000 2000;" xml:space="preserve">
<style type="text/css">
	.st0{fill:#49E59A;}
</style>
<g>
	<g>
		<g>
			<path class="st0" d="M1322.17,678.82c-76.75,2.22-147.71,27.77-206.19,69.69c-44.66-49.46-72.72-114.19-75.26-185.32
				c-0.21-5.85-4.88-10.54-10.73-10.54h-59.98c-5.85,0-10.52,4.69-10.73,10.54c-2.53,71.12-30.59,135.85-75.26,185.32
				c-58.48-41.92-129.45-67.47-206.2-69.69c-6-0.17-10.92,4.76-10.92,10.76v59.75c0,5.77,4.63,10.38,10.39,10.58
				c51.75,1.82,100.12,17.15,141.7,42.56c-41.58,25.41-89.95,40.74-141.7,42.56c-5.77,0.2-10.39,4.81-10.39,10.58v59.75
				c0,6,4.92,10.93,10.92,10.76c76.75-2.22,147.72-27.77,206.2-69.69c44.66,49.46,72.72,114.19,75.26,185.32
				c0.21,5.85,4.88,10.54,10.73,10.54h59.98c5.85,0,10.52-4.69,10.73-10.54c2.53-71.12,30.59-135.85,75.26-185.32
				c58.48,41.92,129.45,67.47,206.19,69.69c6,0.17,10.92-4.76,10.92-10.76V855.6c0-5.77-4.63-10.38-10.39-10.58
				c-51.75-1.82-100.12-17.15-141.7-42.56c41.58-25.41,89.95-40.74,141.7-42.56c5.77-0.2,10.39-4.81,10.39-10.58v-59.75
				C1333.09,683.58,1328.17,678.64,1322.17,678.82z M990.72,866.24c-11.61-20.17-25.03-39.16-40.08-56.74
				c-3.49-4.08-3.49-9.99,0-14.07c15.05-17.57,28.47-36.57,40.08-56.74c4.14-7.2,14.42-7.2,18.57,0
				c11.61,20.17,25.03,39.16,40.08,56.74c3.49,4.08,3.49,9.99,0,14.07c-15.05,17.57-28.47,36.57-40.08,56.74
				C1005.14,873.43,994.86,873.43,990.72,866.24z"/>
			<path class="st0" d="M1322.17,678.82c-76.75,2.22-147.71,27.77-206.19,69.69c-44.66-49.46-72.72-114.19-75.26-185.32
				c-0.21-5.85-4.88-10.54-10.73-10.54h-59.98c-5.85,0-10.52,4.69-10.73,10.54c-2.53,71.12-30.59,135.85-75.26,185.32
				c-58.48-41.92-129.45-67.47-206.2-69.69c-6-0.17-10.92,4.76-10.92,10.76v59.75c0,5.77,4.63,10.38,10.39,10.58
				c51.75,1.82,100.12,17.15,141.7,42.56c-41.58,25.41-89.95,40.74-141.7,42.56c-5.77,0.2-10.39,4.81-10.39,10.58v59.75
				c0,6,4.92,10.93,10.92,10.76c76.75-2.22,147.72-27.77,206.2-69.69c44.66,49.46,72.72,114.19,75.26,185.32
				c0.21,5.85,4.88,10.54,10.73,10.54h59.98c5.85,0,10.52-4.69,10.73-10.54c2.53-71.12,30.59-135.85,75.26-185.32
				c58.48,41.92,129.45,67.47,206.19,69.69c6,0.17,10.92-4.76,10.92-10.76V855.6c0-5.77-4.63-10.38-10.39-10.58
				c-51.75-1.82-100.12-17.15-141.7-42.56c41.58-25.41,89.95-40.74,141.7-42.56c5.77-0.2,10.39-4.81,10.39-10.58v-59.75
				C1333.09,683.58,1328.17,678.64,1322.17,678.82z M990.72,866.24c-11.61-20.17-25.03-39.16-40.08-56.74
				c-3.49-4.08-3.49-9.99,0-14.07c15.05-17.57,28.47-36.57,40.08-56.74c4.14-7.2,14.42-7.2,18.57,0
				c11.61,20.17,25.03,39.16,40.08,56.74c3.49,4.08,3.49,9.99,0,14.07c-15.05,17.57-28.47,36.57-40.08,56.74
				C1005.14,873.43,994.86,873.43,990.72,866.24z"/>
			<path class="st0" d="M1322.17,678.82c-76.75,2.22-147.71,27.77-206.19,69.69c-44.66-49.46-72.72-114.19-75.26-185.32
				c-0.21-5.85-4.88-10.54-10.73-10.54h-59.98c-5.85,0-10.52,4.69-10.73,10.54c-2.53,71.12-30.59,135.85-75.26,185.32
				c-58.48-41.92-129.45-67.47-206.2-69.69c-6-0.17-10.92,4.76-10.92,10.76v59.75c0,5.77,4.63,10.38,10.39,10.58
				c51.75,1.82,100.12,17.15,141.7,42.56c-41.58,25.41-89.95,40.74-141.7,42.56c-5.77,0.2-10.39,4.81-10.39,10.58v59.75
				c0,6,4.92,10.93,10.92,10.76c76.75-2.22,147.72-27.77,206.2-69.69c44.66,49.46,72.72,114.19,75.26,185.32
				c0.21,5.85,4.88,10.54,10.73,10.54h59.98c5.85,0,10.52-4.69,10.73-10.54c2.53-71.12,30.59-135.85,75.26-185.32
				c58.48,41.92,129.45,67.47,206.19,69.69c6,0.17,10.92-4.76,10.92-10.76V855.6c0-5.77-4.63-10.38-10.39-10.58
				c-51.75-1.82-100.12-17.15-141.7-42.56c41.58-25.41,89.95-40.74,141.7-42.56c5.77-0.2,10.39-4.81,10.39-10.58v-59.75
				C1333.09,683.58,1328.17,678.64,1322.17,678.82z M990.72,866.24c-11.61-20.17-25.03-39.16-40.08-56.74
				c-3.49-4.08-3.49-9.99,0-14.07c15.05-17.57,28.47-36.57,40.08-56.74c4.14-7.2,14.42-7.2,18.57,0
				c11.61,20.17,25.03,39.16,40.08,56.74c3.49,4.08,3.49,9.99,0,14.07c-15.05,17.57-28.47,36.57-40.08,56.74
				C1005.14,873.43,994.86,873.43,990.72,866.24z"/>
		</g>
	</g>
	<g>
		<path class="st0" d="M93.47,1445.45l84.66-221.95h32.65l84.33,221.95h-29.49l-23.46-59.93h-96.71L122,1445.45H93.47z
			 M153.71,1360.48h80.22l-40.27-106.85L153.71,1360.48z"/>
		<path class="st0" d="M370.66,1223.5h27.59v128.73c0,45.98,18.39,69.76,56.75,69.76c39.01,0,57.4-23.78,57.4-69.76V1223.5h27.59
			v127.15c0,63.42-29.49,96.71-84.98,96.71c-55.48,0-84.33-33.29-84.33-96.71V1223.5H370.66z"/>
		<path class="st0" d="M645.29,1445.45V1223.5h71.02c69.45,0,111.61,44.39,111.61,110.98c0,66.27-42.16,110.97-111.61,110.97H645.29
			z M672.88,1420.09h43.44c53.91,0,83.4-33.93,83.4-85.61c0-52.01-29.49-85.61-83.4-85.61h-43.44V1420.09z"/>
		<path class="st0" d="M926.28,1223.5h27.59v221.95h-27.59V1223.5z"/>
		<path class="st0" d="M1052.19,1334.48c0-67.22,41.54-112.88,105.9-112.88c49.15,0,84.97,28.54,93.22,74.51h-29.16
			c-8.57-30.75-32.03-49.14-65.32-49.14c-46.61,0-76.41,36.14-76.41,87.51c0,51.04,28.54,87.51,75.15,87.51
			c34.24,0,58.01-18.08,66.26-49.15H1251c-8.24,45.98-45.03,74.51-95.12,74.51C1092.15,1447.35,1052.19,1402.33,1052.19,1334.48z"/>
		<path class="st0" d="M1347.77,1223.5h27.59v221.95h-27.59V1223.5z"/>
		<path class="st0" d="M1466.71,1223.5h171.53v25.37h-71.97v196.58h-27.59v-196.58h-71.97L1466.71,1223.5L1466.71,1223.5z"/>
		<path class="st0" d="M1711.54,1223.5h32.34l65.32,110.03l66.27-110.03h31.06l-83.7,139.83v82.12h-27.59v-82.12L1711.54,1223.5z"/>
	</g>
</g>
</svg>
