<?xml version="1.0" encoding="utf-8"?>
<!-- Generator: Adobe Illustrator 27.0.0, SVG Export Plug-In . SVG Version: 6.00 Build 0)  -->
<svg version="1.1" id="Layer_1" xmlns="http://www.w3.org/2000/svg" xmlns:xlink="http://www.w3.org/1999/xlink" x="0px" y="0px"
	 viewBox="0 0 2000 450.09" style="enable-background:new 0 0 2000 450.09;" xml:space="preserve">
<style type="text/css">
	.st0{fill:#49E59A;}
</style>
<g>
	<g>
		<path class="st0" d="M44.45,342.02l89.24-233.95h34.42L257,342.02h-31.08l-24.73-63.17H99.25l-24.73,63.17L44.45,342.02
			L44.45,342.02z M107.94,252.45h84.56l-42.45-112.63L107.94,252.45z"/>
		<path class="st0" d="M336.62,108.07h29.08v135.7c0,48.46,19.39,73.53,59.82,73.53c41.12,0,60.5-25.07,60.5-73.53v-135.7h29.08
			v134.02c0,66.85-31.08,101.94-89.58,101.94c-58.48,0-88.89-35.09-88.89-101.94L336.62,108.07L336.62,108.07z"/>
		<path class="st0" d="M626.11,342.02V108.07h74.86c73.2,0,117.64,46.79,117.64,116.98c0,69.85-44.44,116.97-117.64,116.97
			L626.11,342.02L626.11,342.02z M655.19,315.29h45.79c56.82,0,87.91-35.76,87.91-90.24c0-54.82-31.08-90.24-87.91-90.24h-45.79
			V315.29z"/>
		<path class="st0" d="M922.29,108.07h29.08v233.95h-29.08V108.07z"/>
		<path class="st0" d="M1055.01,225.05c0-70.85,43.78-118.99,111.63-118.99c51.81,0,89.57,30.08,98.26,78.54h-30.74
			c-9.03-32.41-33.76-51.8-68.85-51.8c-49.14,0-80.55,38.1-80.55,92.24c0,53.8,30.08,92.24,79.22,92.24
			c36.09,0,61.15-19.06,69.84-51.81h30.75c-8.69,48.46-47.46,78.54-100.26,78.54C1097.13,344.02,1055.01,296.56,1055.01,225.05z"/>
		<path class="st0" d="M1366.57,108.07h29.08v233.95h-29.08V108.07z"/>
		<path class="st0" d="M1491.94,108.07h180.81v26.74h-75.87v207.21h-29.08V134.81h-75.87L1491.94,108.07L1491.94,108.07z"/>
		<path class="st0" d="M1750.02,108.07h34.09l68.85,115.98l69.85-115.98h32.74l-88.22,147.39v86.56h-29.08v-86.56L1750.02,108.07z"
			/>
	</g>
</g>
</svg>
