<?xml version="1.0" encoding="utf-8"?>
<!-- Generator: Adobe Illustrator 27.0.0, SVG Export Plug-In . SVG Version: 6.00 Build 0)  -->
<svg version="1.1" id="Layer_1" xmlns="http://www.w3.org/2000/svg" xmlns:xlink="http://www.w3.org/1999/xlink" x="0px" y="0px"
	 viewBox="0 0 2000 2000" style="enable-background:new 0 0 2000 2000;" xml:space="preserve">
<style type="text/css">
	.st0{fill:#49E59A;}
</style>
<g>
	<path class="st0" d="M1924.23,645.29c-220.17,6.37-423.75,79.67-591.52,199.92c-128.13-141.89-208.63-327.58-215.89-531.62
		c-0.6-16.78-13.99-30.25-30.78-30.25H913.97c-16.79,0-30.18,13.46-30.78,30.25c-7.27,204.04-87.77,389.73-215.89,531.62
		C499.53,724.96,295.94,651.66,75.77,645.29c-17.21-0.5-31.33,13.65-31.33,30.87v171.41c0,16.55,13.27,29.77,29.82,30.35
		c148.46,5.21,287.22,49.2,406.49,122.09c-119.27,72.88-258.03,116.87-406.49,122.09c-16.54,0.58-29.82,13.79-29.82,30.35v171.41
		c0,17.22,14.12,31.36,31.33,30.87c220.17-6.37,423.75-79.67,591.52-199.92c128.13,141.89,208.63,327.58,215.89,531.62
		c0.6,16.78,13.99,30.25,30.78,30.25h172.07c16.79,0,30.18-13.46,30.78-30.25c7.27-204.04,87.77-389.73,215.89-531.62
		c167.76,120.25,371.35,193.54,591.52,199.92c17.21,0.5,31.33-13.65,31.33-30.87v-171.41c0-16.55-13.27-29.77-29.82-30.35
		c-148.46-5.21-287.22-49.2-406.49-122.09c119.27-72.88,258.03-116.87,406.49-122.09c16.54-0.58,29.82-13.79,29.82-30.35V676.15
		C1955.55,658.94,1941.43,644.79,1924.23,645.29z M973.37,1182.94c-33.32-57.85-71.82-112.35-114.99-162.76
		c-10.01-11.69-10.01-28.67,0-40.36c43.17-50.41,81.67-104.91,114.99-162.76c11.89-20.65,41.37-20.65,53.26,0
		c33.32,57.85,71.82,112.35,114.99,162.76c10.01,11.69,10.01,28.67,0,40.36c-43.17,50.41-81.67,104.91-114.99,162.76
		C1014.74,1203.59,985.26,1203.59,973.37,1182.94z"/>
</g>
</svg>
